<svg width="16" height="16" viewBox="0 0 16 16" fill="none" xmlns="http://www.w3.org/2000/svg">
<path fill-rule="evenodd" clip-rule="evenodd" d="M7.82586 1.33331C11.4059 1.33331 14.3179 4.24531 14.3179 7.82531C14.3179 9.51434 13.6697 11.0548 12.609 12.211L14.6961 14.2938C14.8915 14.4891 14.8921 14.8051 14.6968 15.0004C14.5995 15.0991 14.4708 15.1478 14.3428 15.1478C14.2155 15.1478 14.0875 15.0991 13.9895 15.0018L11.8771 12.8953C10.7659 13.7852 9.35697 14.318 7.82586 14.318C4.24586 14.318 1.33319 11.4053 1.33319 7.82531C1.33319 4.24531 4.24586 1.33331 7.82586 1.33331ZM7.82586 2.33331C4.79719 2.33331 2.33319 4.79665 2.33319 7.82531C2.33319 10.854 4.79719 13.318 7.82586 13.318C10.8539 13.318 13.3179 10.854 13.3179 7.82531C13.3179 4.79665 10.8539 2.33331 7.82586 2.33331Z" fill="#8D8F95"/>
</svg>
